<svg xmlns="http://www.w3.org/2000/svg" width="1024" height="1024" preserveAspectRatio="none"
  style="display: block;" version="1.1" viewBox="0 0 2048 2048">
  <defs>
    <pattern id="_k79g446i" patternUnits="userSpaceOnUse" width="819.2" height="819.2"
      patternTransform="rotate(-30)">
      <text x="409.6" y="409.6" font-family="Arial,Helvetica,sans-serif"
        font-size="68.26666666666667" fill="rgba(0,0,0,0.045)" font-weight="600"
        text-anchor="middle" letter-spacing="3">VECTOSOLVE</text>
    </pattern>
    <linearGradient id="j" x1="797.696" x2="775.278" y1="1197.94" y2="1265.08"
      gradientUnits="userSpaceOnUse">
      <stop class="stop0" offset="0" stop-color="rgb(23,105,251)" stop-opacity="1"></stop>
      <stop class="stop1" offset="1" stop-color="rgb(82,172,255)" stop-opacity="1"></stop>
    </linearGradient>
    <linearGradient id="i" x1="1133.1" x2="1113.03" y1="1198.49" y2="1177.64"
      gradientUnits="userSpaceOnUse">
      <stop class="stop0" offset="0" stop-color="rgb(107,118,150)" stop-opacity="1"></stop>
      <stop class="stop1" offset="1" stop-color="rgb(146,151,175)" stop-opacity="1"></stop>
    </linearGradient>
    <linearGradient id="h" x1="1184.6" x2="1104.02" y1="1131.36" y2="1086.86"
      gradientUnits="userSpaceOnUse">
      <stop class="stop0" offset="0" stop-color="rgb(164,175,202)" stop-opacity="1"></stop>
      <stop class="stop1" offset="1" stop-color="rgb(209,212,232)" stop-opacity="1"></stop>
    </linearGradient>
    <linearGradient id="g" x1="1392.69" x2="1487.2" y1="1194.63" y2="1254.05"
      gradientUnits="userSpaceOnUse">
      <stop class="stop0" offset="0" stop-color="rgb(91,100,131)" stop-opacity="1"></stop>
      <stop class="stop1" offset="1" stop-color="rgb(113,124,149)" stop-opacity="1"></stop>
    </linearGradient>
    <linearGradient id="f" x1="672.506" x2="710.81" y1="493.391" y2="309.09"
      gradientUnits="userSpaceOnUse">
      <stop class="stop0" offset="0" stop-color="rgb(34,123,255)" stop-opacity="1"></stop>
      <stop class="stop1" offset="1" stop-color="rgb(88,169,255)" stop-opacity="1"></stop>
    </linearGradient>
    <linearGradient id="e" x1="607.313" x2="734.97" y1="1144.41" y2="1388.07"
      gradientUnits="userSpaceOnUse">
      <stop class="stop0" offset="0" stop-color="rgb(134,143,170)" stop-opacity="1"></stop>
      <stop class="stop1" offset="1" stop-color="rgb(185,193,218)" stop-opacity="1"></stop>
    </linearGradient>
    <linearGradient id="d" x1="1753.47" x2="1312.77" y1="1524.29" y2="1233.3"
      gradientUnits="userSpaceOnUse">
      <stop class="stop0" offset="0" stop-color="rgb(102,112,137)" stop-opacity="1"></stop>
      <stop class="stop1" offset="1" stop-color="rgb(128,135,159)" stop-opacity="1"></stop>
    </linearGradient>
    <linearGradient id="c" x1="1251.78" x2="1210.29" y1="1616.37" y2="1604.03"
      gradientUnits="userSpaceOnUse">
      <stop class="stop0" offset="0" stop-color="rgb(112,123,147)" stop-opacity="1"></stop>
      <stop class="stop1" offset="1" stop-color="rgb(137,142,176)" stop-opacity="1"></stop>
    </linearGradient>
    <linearGradient id="b" x1="816.741" x2="837.368" y1="1615.02" y2="1603.08"
      gradientUnits="userSpaceOnUse">
      <stop class="stop0" offset="0" stop-color="rgb(118,124,150)" stop-opacity="1"></stop>
      <stop class="stop1" offset="1" stop-color="rgb(142,151,181)" stop-opacity="1"></stop>
    </linearGradient>
    <linearGradient id="a" x1="268.983" x2="1527.72" y1="1639.71" y2="897.358"
      gradientUnits="userSpaceOnUse">
      <stop class="stop0" offset="0" stop-color="rgb(104,113,138)" stop-opacity="1"></stop>
      <stop class="stop1" offset="1" stop-color="rgb(125,134,162)" stop-opacity="1"></stop>
    </linearGradient>
  </defs>
  <path fill="rgb(35,41,54)"
    d="M979.742 0h88.598c4.9 7.2698 11.79 8.4926 19.48 12.0277 55.65 25.574 105.55 58.5634 155.55 93.5693 17.12 11.988 35.33 21.937 52.96 34.675a1546.1 1546.1 0 0 1 164 137.377c38.27 37.088 71.64 79.805 103.34 122.487 11.92 16.049 24.4 31.986 35.28 48.754 14.26 22.002 26.48 45.299 39.95 67.777 11.3 18.871 23.25 37.358 34.17 56.46 14.4 25.196 27.53 51.319 40.32 77.364 11.3 23.007 20.45 46.851 31.21 70.065 6.5 14.015 13.75 27.661 20.25 41.696 14.49 31.309 28.08 63.424 41.01 95.412 12.09 29.907 21.93 60.651 33.59 90.718 17.06 44.023 35.72 87.448 52.24 131.688 18.1 48.5 33.59 97.7 49.31 146.99 11.34 35.56 48 125.02 42.05 156.91-.06.34-.15.67-.22 1-2.12 26.81-16.19 52.04-29.38 74.64-33.4 57.27-80.23 100.18-129.72 143.04-8.7 7.53-43.59 29.91-46.42 35.36 1.88 7.87 27.59 28.61 34.89 35.97 18.52 18.65 34.76 38.18 50.11 59.55 7.79 10.86 9.91 16.29 10 29.75-18.08 8.25-27.32 11.12-45.25 17.71-32.77 12.1-66.02 22.85-99.68 32.22-26.91 7.45-54.03 13.51-80.77 21.4-6.66 1.96-14 1.99-20.58 3.68l-.88.25c-5.06 1.44-10.34 4.23-15.1 5.38-15.71 3.78-30.63 6.66-45.92 12.21-8.06 1.74-16.34 2.34-24.36 4.19-4.41 1.02-18.8 8.29-21.48 8.26-18.28-.22-32.51 6.43-49.35 10.16-57.53 12.14-115.38 22.76-173.47 31.85-39.7 5.99-80.86 10.08-120.74 16.21-15.62 2.41-33.96.53-49.52 3.96-22.05 8.95-44.22 24.78-65.48 35.78-53.29 27.59-107.047 51.86-165.51 66.38-14.35 3.57-16.738 8.4-34.132 9.27-3.088 1.73-6.933 3.72-9.714 5.81h-146.409c-11.07-8.17-13.567-5.51-25.398-8.05-111.97-24.02-212.605-78.73-312.371-132.93-26.511-14.4-52.831-34.6-78.092-51.55-54.281-36.42-105.898-77.56-151.801-124.16-18.336-18.73-41.8402-41.24-53.1421-64.91 14.7848-25.01 85.7811-61.32 114.5761-73.64 4.285-1.83 8.845-2.66 13.162-4.34 3.976-1.53 8.655-3.99 10.507-8.02-9.074-10.44-17.211-14.71-26.64-23.26-30.857-27.99-62.539-53.39-87.567-87.32-11.592-15.71-33.0901-45.84-38.3078-64.85-11.2415-44.37 9.3715-88.26 20.6393-130.5 3.6716-13.76 10.6165-21.56 10.9465-36.56.079-3.56 7.212-18.31 8.548-23.29 5.992-22.3 12.903-44.6 19.904-66.62 15.662-50.35 33.323-100.05 52.94-148.998 8.464-21.726 19.448-44.543 27.434-66.185 9.875-26.764 19.356-53.45 29.832-80.055 19.663-49.934 42.601-96.565 65.162-144.976 16.628-35.148 30.64-72.406 48.933-106.765 46.504-87.352 92.368-177.816 150.138-258.251 35.065-48.824 74.375-88.853 122.959-124.232 16.554-12.055 31.278-27.115 48.661-38.821 7.06-5.073 13.809-10.887 20.983-16.093 32.363-23.973 67.127-44.911 101.115-66.1881 50.625-31.6915 100.762-61.7184 156.576-83.5188 8.99-3.5113 20.632-6.3088 26.08-13.9171"></path>
  <path fill="rgb(113,123,149)"
    d="M1521.04 1615.63c16.09-3.64 7.49-10.77 30.91-8.96-5.36 4.45-10.75 8.85-16.17 13.21l.25 1.52c-97.72 88.66-201.98 169.84-311.89 242.84-17.38 11.69-36.29 22.55-53.83 34.17-4.44 2.94-17.84 3.75-20.01 8.96 4.12 5.53 32.93 5.59 40.31 5.72-11.43 2.51-22.86 5.26-34.19 7-7.52 1.14-37.83 1.82-42.11 4.38-37.8 22.66-76.51 42.55-117.35 59.26-16.384 6.7-32.029 15.67-49.561 19.74-6.044 1.53-14.608 7.41-21.384 8.82-6.137 1.28-14.982 5.43-20.787 6.69-4.717 1.48-14.813 4.48-19.047 6.24-16.655 6.95-20.108 11.13-38.406 11.99 3.769-1.42 3.293-.59 5.283-3.33l-.579-2.29c-14.955-16.9-33.61-12.99-52.871-18.93-34.919-10.77-69.84-20.27-103.099-35.73-9.501-4.42-20.546-7.19-29.992-11.98-8.312-4.25-16.45-8.95-24.705-13.36 15.527-7.31 35.407-2.5 51.341-3.5 41.679-2.64 82.828 4 122.598-10.91 4.963-1.86 21.639-1.19 28.573-2.88 75.095-18.38 150.849-37.8 222.256-68.09 48.86-21.42 96.87-44.83 144.51-68.82 34.84-17.55 71.48-36.19 104.42-57.12 67.59-42.96 140.98-77.14 205.53-124.64"></path>
  <path fill="rgb(213,214,216)"
    d="M674.988 179.717c4.798 3.222 8.058 2.434 14.113 2.282-59.922 43.73-122.973 94.967-168.354 153.916-39.547 52.182-69.517 110.776-104.163 166.19-2.972 4.752-6.331 10.767-8.953 15.755-84.029 159.822-154.492 324.39-220.109 492.47-9.08 23.26-17.229 49.7-25.319 73.46-13.463 38.71-26.407 77.6-38.828 116.66-14.837 46.95-35.8024 102.14-43.9838 150.25-38.0891 38.74 42.7028 136.53 73.8998 163.01 20.527 17.42 41.744 42.25 65.533 54.82 24.394 12.88 4.179 17.14 1.174 27.7-37.359 13.58-99.947 43.01-126.9047 71.29 10.2637 17.09 38.0067 43.07 53.0617 58.51 45.902 47.08 102.413 90.49 156.227 128.3 36.672 25.77 78.93 47.63 117.539 70.54 42.182 24.15 80.701 43.09 125.897 60.55 47.962 18.52 94.851 36.06 144.836 48.77 8.382 2.28 24.467 4.31 33.132 3.88 4.927 1.03 5.701.32 8.738 3.22.238 2.54.408 4.12.422 6.71h-28.981c-11.07-8.17-13.567-5.51-25.398-8.05-111.97-24.02-212.605-78.73-312.371-132.93-26.511-14.4-52.831-34.6-78.092-51.55-54.281-36.42-105.898-77.56-151.801-124.16-18.336-18.73-41.8402-41.24-53.1421-64.91 14.7848-25.01 85.7811-61.32 114.5761-73.64 4.285-1.83 8.845-2.66 13.162-4.34 3.976-1.53 8.655-3.99 10.507-8.02-9.074-10.44-17.211-14.71-26.64-23.26-30.857-27.99-62.539-53.39-87.567-87.32-11.592-15.71-33.0901-45.84-38.3078-64.85-11.2415-44.37 9.3715-88.26 20.6393-130.5 3.6716-13.76 10.6165-21.56 10.9465-36.56.079-3.56 7.212-18.31 8.548-23.29 5.992-22.3 12.903-44.6 19.904-66.62 15.662-50.35 33.323-100.05 52.94-148.998 8.464-21.726 19.448-44.543 27.434-66.185 9.875-26.764 19.356-53.45 29.832-80.055 19.663-49.934 42.601-96.565 65.162-144.976 16.628-35.148 30.64-72.406 48.933-106.765 46.504-87.352 92.368-177.816 150.138-258.251 35.065-48.824 74.375-88.853 122.959-124.232 16.554-12.055 31.278-27.115 48.661-38.821"></path>
  <path fill="rgb(213,214,216)"
    d="M1050.96 0h17.38c4.9 7.2698 11.79 8.4926 19.48 12.0277 55.65 25.574 105.55 58.5634 155.55 93.5693 17.12 11.988 35.33 21.937 52.96 34.675a1546.1 1546.1 0 0 1 164 137.377c38.27 37.088 71.64 79.805 103.34 122.487 11.92 16.049 24.4 31.986 35.28 48.754 14.26 22.002 26.48 45.299 39.95 67.777 11.3 18.871 23.25 37.358 34.17 56.46 14.4 25.196 27.53 51.319 40.32 77.364 11.3 23.007 20.45 46.851 31.21 70.065 6.5 14.015 13.75 27.661 20.25 41.696 14.49 31.309 28.08 63.424 41.01 95.412 12.09 29.907 21.93 60.651 33.59 90.718 17.06 44.023 35.72 87.448 52.24 131.688 18.1 48.5 33.59 97.7 49.31 146.99 11.34 35.56 48 125.02 42.05 156.91-.06.34-.15.67-.22 1-4.78-5.66-.95-27.91-14.32-43.91-1-3.57-1.22-7.32-2.31-11.02-13.69-46.51-30.72-91.51-46.45-137.17-17.1-50.82-34.76-101.45-53-151.88-11.81-31.71-24.94-63.047-37.59-94.435-25.51-63.272-48.68-127.602-76.87-189.752-5.71-12.592-11.95-24.948-17.75-37.492-24.69-54.735-51.68-108.406-80.89-160.869-11.25-19.898-23.79-38.731-35.43-58.599-44.72-76.378-99.07-146.543-160.16-210.501-15.89-16.635-36.84-34.674-54.04-49.801-84.45-73.641-176.18-138.486-273.78-193.5303-12.72-7.1834-55.28-32.0167-67.01-32.9782-4.01-1.1287-6.54-.5402-10.34-2.7351-2.1-2.7124-1.76-6.6784-1.93-10.2974"></path>
  <path fill="rgb(213,214,216)"
    d="M1686.16 1813.07c-4.69 5.11-20.67 7.75-27.32 11.05-12.3 6.1-19.69 7.85-33.09 10.21-.01 2.22-.04 1.89.28 3.96l-.88.25c-5.06 1.44-10.34 4.23-15.1 5.38-15.71 3.78-30.63 6.66-45.92 12.21-8.06 1.74-16.34 2.34-24.36 4.19-4.41 1.02-18.8 8.29-21.48 8.26-18.28-.22-32.51 6.43-49.35 10.16-57.53 12.14-115.38 22.76-173.47 31.85-39.7 5.99-80.86 10.08-120.74 16.21-15.62 2.41-33.96.53-49.52 3.96-22.05 8.95-44.22 24.78-65.48 35.78-53.29 27.59-107.047 51.86-165.51 66.38-14.35 3.57-16.738 8.4-34.132 9.27-3.088 1.73-6.933 3.72-9.714 5.81h-34.148c.902-3.54.82-3.73 2.73-7.01 2.875-2.11 8.769-2.22 12.555-2.92 4.204.1 11.442-.75 16.264-.86 18.298-.86 21.751-5.04 38.406-11.99 4.234-1.76 14.33-4.76 19.047-6.24 5.805-1.26 14.65-5.41 20.787-6.69 6.776-1.41 15.34-7.29 21.384-8.82 17.532-4.07 33.177-13.04 49.561-19.74 40.84-16.71 79.55-36.6 117.35-59.26 4.28-2.56 34.59-3.24 42.11-4.38 11.33-1.74 22.76-4.49 34.19-7 23.1-1.29 38.67-5.69 60.49-8.5 58.74-7.57 118.88-16.82 177.1-27.83 60.49-11.73 120.5-25.81 179.88-42.23 26.31-7.2 51.66-12.88 78.08-21.46"></path>
  <path fill="rgb(193,199,221)"
    d="m905.228 2018.98 12.203.11.461.87c-2.047.75-6.856 3.11-8.354 3.51-15.032 4.01-35.59 14.67-49.897 17.83l.447.89c-3.088 1.73-6.933 3.72-9.714 5.81h-34.148c.902-3.54.82-3.73 2.73-7.01 2.875-2.11 8.769-2.22 12.555-2.92 4.204.1 11.442-.75 16.264-.86 18.298-.86 21.751-5.04 38.406-11.99 4.234-1.76 14.33-4.76 19.047-6.24"></path>
  <path fill="rgb(193,199,221)"
    d="M1968.51 1341.06c13.37 16 9.54 38.25 14.32 43.91-2.12 26.81-16.19 52.04-29.38 74.64-33.4 57.27-80.23 100.18-129.72 143.04-8.7 7.53-43.59 29.91-46.42 35.36 1.88 7.87 27.59 28.61 34.89 35.97 18.52 18.65 34.76 38.18 50.11 59.55 7.79 10.86 9.91 16.29 10 29.75-18.08 8.25-27.32 11.12-45.25 17.71-32.77 12.1-66.02 22.85-99.68 32.22-26.91 7.45-54.03 13.51-80.77 21.4-6.66 1.96-14 1.99-20.58 3.68-.32-2.07-.29-1.74-.28-3.96 13.4-2.36 20.79-4.11 33.09-10.21 6.65-3.3 22.63-5.94 27.32-11.05 19.9-4.93 168.39-48.47 174.49-55.25 6.94-7.71-10.61-26.12-15.25-31.68-14.91-17.92-30.39-34.96-47.27-51.04-9.57-9.11-21.33-17.71-29.8-27.74-2.09-2.47-2.76-5.03-3.15-8.19-.26-2.04-.29-4.67.54-6.6 1.34-3.1 20.93-15.79 24.74-18.63 52.37-39.03 101.24-84.01 140.35-136.6 34.95-46.97 46.26-77.63 37.7-136.28"></path>
  <path fill="rgb(193,199,221)"
    d="M979.742 0h18.68c-.714 5.1013-.612 8.0967-3.858 12.0426-17.209-.2198-34.033 9.0555-49.543 16.4033-67.603 32.0254-133.398 67.9999-194.648 111.0791-20.092 14.115-41.85 27.377-61.272 42.474-6.055.152-9.315.94-14.113-2.282 7.06-5.073 13.809-10.887 20.983-16.093 32.363-23.973 67.127-44.911 101.115-66.1881 50.625-31.6915 100.762-61.7184 156.576-83.5188 8.99-3.5113 20.632-6.3088 26.08-13.9171"></path>
  <path fill="rgb(193,199,221)"
    d="M219.998 1596.23c3.005-10.56 23.22-14.82-1.174-27.7-23.789-12.57-45.006-37.4-65.533-54.82-31.197-26.48-111.9889-124.27-73.8998-163.01-7.2818 36.57-3.9172 58.93 18.5306 90.42 36.8062 51.64 86.4262 93.45 134.6892 133.91 4.354 3.65 6.229 9.73 8.178 15.04-3.248 1.01-17.941 5.78-20.791 6.16"></path>
  <path fill="rgb(72,78,94)"
    d="M723.786 2038.07c16.468-.97 38.466-.08 55.377-.08 15.396-.01 37.477-.9 52.348.08-3.786.7-9.68.81-12.555 2.92-1.91 3.28-1.828 3.47-2.73 7.01h-83.28c-.014-2.59-.184-4.17-.422-6.71-3.037-2.9-3.811-2.19-8.738-3.22"></path>
  <path fill="rgb(72,78,94)"
    d="M998.422 0h52.538c.17 3.619-.17 7.585 1.93 10.2974 3.8 2.1949 6.33 1.6064 10.34 2.7351-6.87.6369-22.15-.4207-29.71-.5241-12.68-.1733-26.51.2025-38.956-.4658 3.246-3.946 3.144-6.9413 3.858-12.0426"></path>
  <path fill="rgb(72,78,94)"
    d="M1521.04 1615.63c7.56-6.05 28.14-21.2 37.46-21.07l1.84 1.33c.26 4.69-.54 4.23-3.92 8.47-2.57 3.22-17.45 16.34-20.39 17.04l-.25-1.52c5.42-4.36 10.81-8.76 16.17-13.21-23.42-1.81-14.82 5.32-30.91 8.96"></path>
  <path fill="url(#a)"
    d="M329.124 1694.53c8.393 2.34 17.211 6.2 25.382 9.46 18.948 7.55 39.861 11.61 58.912 17.99 27.209 8.88 54.516 19.58 81.773 28.11 25.782 8.07 52.63 14.98 78.376 23.31 6.604 2.13 15.228 2.65 21.636 4.82 17.459 5.89 34.371 9.24 52.57 11.86 14.618 3.32 29.81 7.83 44.742 9.67 8.55 1.06 18.508 11.24 25.067 6.11.25-1.41.374-1.75.333-3.32-.114-4.43-3.6-9.54-7.428-11.5-6.438-3.3-13.12-5.49-19.368-9.3-11.83-7.22-21.965-16.51-32.944-24.86-7.213-5.49-14.979-10.26-22.307-15.6-8.583-6.26-16.701-13.13-25.306-19.34-26.6-19.2-53.796-37.52-80.098-57.16-24.075-17.98-47.156-37.13-70.891-55.54-20.964-16.26-42.295-32.13-62.616-49.2-20.193-16.96-39.397-35.37-58.963-53.07-37.012-33.47-78.631-69.58-100.375-115.43-3.894-8.21-7.776-15.74-8.036-25.02-1.514-53.9 135.677-211.76 174.139-253.88a2607.24 2607.24 0 0 1 424.189-369.456c61.978-43.476 121.113-83.89 189.489-118.043 47.82-23.889 112.54-66.613 168.59-51.71 22.44 5.967 55.57 32.317 75.17 46.129 57.63 41.295 103.53 86.546 152.8 136.642 16 16.03 32.35 31.717 49.02 47.049 6.32 4.66 30.1 25.588 31.6 33.922.36 2.003-.06 1.945-.98 3.902-1.87.995-3.51 2.342-5.62 1.006-9.04-5.751-30.51-21.842-38.35-28.594-31.16-22.995-71.81-47.967-106.92-68.119-48.95-28.091-141.34-101.308-199.03-88.587-53.66 11.832-119.72 50.887-167.966 78.006-29.828 17.799-63.904 36.256-91.218 53.773a2089.33 2089.33 0 0 0-338.88 270.8c-19.297 18.93-39.671 36.85-57.366 57.51-56.477 65.93-112.699 130.07-155.842 205.99-23.634 41.59-10.507 52.7 15.665 87.02 40.957 55.59 92.976 99.67 141.4 148.35 20.38 18.9 42.454 36.18 63.167 54.68 86.634 77.4 179.599 147.33 273.239 215.93 16.541 12.11 31.305 20.25 45.458 35.62-44.519 2.54-88.941 2.39-132.178-7.52-11.776-2.69-30.434-.12-42.855-2.68-19.894-3.96-38.356-10.59-59.085-12.03-6.505-.45-19.086-7.23-26.136-8.31-6.048-1.52-13.315-1.33-19.727-3.02-97.107-26.52-189.306-68.52-273.052-124.37-7.383-2.54-24.14-8.91-19.053-19.05 9.782-6.66 21.565 1.79 29.873 7.05"></path>
  <path fill="rgb(72,78,94)"
    d="M1462.98 803.251c6.32 4.66 30.1 25.588 31.6 33.922.36 2.003-.06 1.945-.98 3.902-1.87.995-3.51 2.342-5.62 1.006-9.04-5.751-30.51-21.842-38.35-28.594 11.75 2.176 14.5 10.858 25.56 16.436l4.59-1.569.76.544-2.34 4.176 1.12 1.246c3.44.172 7.39.929 8.96-2.584-2.69-9.123-21.41-17.644-25.3-28.485"></path>
  <path fill="rgb(72,78,94)"
    d="M318.304 1706.53c-7.383-2.54-24.14-8.91-19.053-19.05 9.782-6.66 21.565 1.79 29.873 7.05-9.499.69-15.4-12.14-25.411-5.94-2.007 3.63-2.035 2.5-1.947 6.15 6.433 7.33 13.244 5.82 16.538 11.79"></path>
  <path fill="rgb(193,199,221)"
    d="M785.045 1457.73c14.647-54.32 106.098-170.77 172.545-153.97 24.324 6.16 54.37 22.95 71.63 41.35 14.69-2.49 24.12-12.92 36.77-21.28 33.75-22.3 75.73-28.59 110.35-4.38 42.13 31.1 90.62 93.26 100.09 145.89 2.96 16.48 4.94 54.3-.53 69.74 2.31 47.46-35.19 76.26-49.71 115.83-13.51.43-22.44-.11-35.53-4.18-11.69-4.99-20.63-6.35-32.27-9.94-16.6-5.11-29.39-9.19-46.87-10.77-8.85-1.5-18.78-6.43-27.6-7.09-31.13-2.35-67.52-4.65-98.508-.41-16.016 2.18-40.381 8.37-57.083 11.6-17.715 3.42-41.779 12.54-58.917 18.44-7.068 1.54-18.95 5.61-25.758 3.09-8.93-3.32-49.169-70.97-55.187-83.72-11.713-24.81-17.317-59.29-11.813-86.35 1.638-8.06 5.598-16.08 8.391-23.85"></path>
  <path fill="url(#b)"
    d="M785.045 1457.73c.026 7.02 4.292 67.03 5.613 70.84 13.729 39.51 48.942 81.29 74.713 114.35 2.393 3.05 1.91 1.05 4.041 5.64-7.068 1.54-18.95 5.61-25.758 3.09-8.93-3.32-49.169-70.97-55.187-83.72-11.713-24.81-17.317-59.29-11.813-86.35 1.638-8.06 5.598-16.08 8.391-23.85"></path>
  <path fill="url(#c)"
    d="M1275.9 1535.08c2.31 47.46-35.19 76.26-49.71 115.83-13.51.43-22.44-.11-35.53-4.18 4.1-6.1 8.42-5.03 12.03-10.23 14.06-20.28 29.36-39.42 42.5-60.38 7.32-11.69 26.72-29.87 30.71-41.04"></path>
  <path fill="rgb(35,41,54)"
    d="M1067.59 1458.38c1.71-6.17 4.67-17.48 7.17-23.03 9.55-20.42 27.08-38.4 46.5-49.68 9.85-5.71 20.32-8.37 31.6-5.32 16.85 4.56 22.43 29.04 17.15 43.5-4.27 11.69-18.3 22.11-29.52 26.88-11.23 4.95-21.35 5.38-32.56 8.64-6.1 1.78-18.17 9.33-23.93 12.78l-5.92 10.27c-4.68 1.64-9.22 3.54-13.81 5.41-7.1-1.26 2.02-25.49 3.32-29.45"></path>
  <path fill="rgb(0,0,0)"
    d="M1067.59 1458.38c8.02 12.91 11.61 6.3 16.41 13.77l-5.92 10.27c-4.68 1.64-9.22 3.54-13.81 5.41-7.1-1.26 2.02-25.49 3.32-29.45"></path>
  <path fill="rgb(35,41,54)"
    d="M977.112 1471.55c-14.953-12.49-24.933-12.36-43.843-17.63-31.129-8.19-62.711-51.76-22.899-72.05 26.849-13.68 65.431 27.12 75.97 48.3 3.604 7.24 6.613 18.44 9.706 26.31 5.804 14.49 5.254 19.23 3.227 34.48a980 980 0 0 0-22.161-19.41"></path>
  <path fill="rgb(0,0,0)"
    d="M977.112 1471.55c5.414-2.79 6.954-9.78 12.934-12.24 2.724-1.12 3.403-1.46 6-2.83 5.804 14.49 5.254 19.23 3.227 34.48a980 980 0 0 0-22.161-19.41"></path>
  <path fill="rgb(51,133,250)"
    d="M1343.95 853.864c5.4-.276 17.93-1.802 21.81 1.488 2.84 10.176 3.19 88.1-1.02 95.746-10.29 18.719-59.77 20.686-54.01 48.592 1.41 6.79 7.64 11.85 8.66 18.69 1.29 8.69-5.63 19.4-7.37 28.14-1.65 8.24-1 17.27.35 25.53 10.21 2.71 20.81 4.37 30.77 7.4 28.47 8.66 48.4 27.54 63.47 52.14 27.78 45.35 20.28 94.59-8.54 137.11-2.16 3.17-4.26 7.64-5.74 11.26 7.34 11.1 9.39 15.54 10.49 29.16.47 10.35 1.71 29.51 1.03 39.27l.49 8.21c-2.28 20.85-2.12 62.75-1.02 84.34 11.89 7.29 48.64 32.54 55.42 43.54 1.58 24.43 4.1 60.12-2.98 83.89-1.12 3.75-13.26 1.34-15.33-1.76-12.57-18.82-.59-49.81-6.68-71.21-8.51-16.96-40.25-28.01-53.84-46.01-4.61-19.28.97-51.63-3.04-75.79-4.1-.03-5.98 3.06-9.67 4.94 1.1-4.69 1.23-37.2.11-41.67l-2.49-1.49c1.6-2.32 3.22-4.62 4.85-6.92l1.61.09.98 2.38c-1.3 4.29-3.19 7.61-.39 11.47 2.48-6.04 2.56-29.39 2.64-36.89-3-2.79-4.13-4-6.73-7.18-12.03 1.01-16.48 7-26.21 9-45.42 9.35-88.97 4.84-122.03-28.49-59.09-59.57-42.81-159.16 32.47-194.97 9.32-4.43 26.74-8.12 33.19-14.93 2.34-5.93 1.25-16.48.96-23.08.09-14.34-1.41-23.69-.22-38.41.78-11.811 1.21-23.638 1.29-35.47 11.13-10.661 39.53-25.031 54.56-32.578 3.08-16.81 1.82-65.394 2.16-85.538"></path>
  <path fill="rgb(15,89,227)"
    d="M1367.78 1298.33c8.97 1.31 9.77 4.95 10.34 13.41 4.78 18.47.92 35.53.81 53.73-.1 16.88 2.62 34.9 1.45 52.1-.25 4.25-.26 25.83.88 28.13 10.17 20.57 46.14 29.1 54.47 49.99 4.11 10.32-.44 58.75 2.96 63.69 6.36-.44 5.92-6.07 13.16-4.6 1.43.29 2.85.62 4.27.99l1.34-1.08c1.83-18.02.58-49.43-.03-68.12-10.48-17.04-41.31-31.61-54.91-44.74-3.29-3.19-2.05-85.73 1.33-93.44l.49 8.21c-2.28 20.85-2.12 62.75-1.02 84.34 11.89 7.29 48.64 32.54 55.42 43.54 1.58 24.43 4.1 60.12-2.98 83.89-1.12 3.75-13.26 1.34-15.33-1.76-12.57-18.82-.59-49.81-6.68-71.21-8.51-16.96-40.25-28.01-53.84-46.01-4.61-19.28.97-51.63-3.04-75.79-4.1-.03-5.98 3.06-9.67 4.94 1.1-4.69 1.23-37.2.11-41.67l-2.49-1.49c1.6-2.32 3.22-4.62 4.85-6.92l1.61.09.98 2.38c-1.3 4.29-3.19 7.61-.39 11.47 2.48-6.04 2.56-29.39 2.64-36.89-3-2.79-4.13-4-6.73-7.18"></path>
  <path fill="rgb(19,43,108)"
    d="M1367.78 1298.33c8.97 1.31 9.77 4.95 10.34 13.41-.21 16.71-4.43 47.76-1.25 61.86-4.1-.03-5.98 3.06-9.67 4.94 1.1-4.69 1.23-37.2.11-41.67l-2.49-1.49c1.6-2.32 3.22-4.62 4.85-6.92l1.61.09.98 2.38c-1.3 4.29-3.19 7.61-.39 11.47 2.48-6.04 2.56-29.39 2.64-36.89-3-2.79-4.13-4-6.73-7.18"></path>
  <path fill="rgb(35,41,54)"
    d="M1293.34 1098.85c51.93-5.63 98.56 31.94 104.12 83.87s-32.06 98.51-84 104.01c-51.84 5.48-98.33-32.06-103.88-83.9-5.55-51.83 31.94-98.37 83.76-103.98"></path>
  <path fill="rgb(51,133,250)"
    d="M1292.69 1138.46c30.23-6.57 60.02 12.78 66.31 43.07s-13.34 59.9-43.69 65.91c-29.95 5.92-59.08-13.39-65.29-43.28-6.21-29.9 12.84-59.21 42.67-65.7"></path>
  <path fill="url(#d)"
    d="M1514.59 928.615c1.22-4.865 1.5-5.39 5.73-7.406a2227.9 2227.9 0 0 1 201.28 243.781c31.19 43.81 110.53 155.4 110.83 212.78-8.4 64.25-60.77 119.37-100.38 166.75-65.13 77.91-142.26 140.84-225.87 197.68-9.87 6.71-20.75 13.7-30.05 21.07-5.05 5.47-19.05 18.18-26.68 15.03l-.64-2.33c1.99-8.08 12.49-16.99 19.16-21.74 13.45-11.73 23.72-23.57 36.28-35.82 33.09-32.28 63.11-66.53 91.84-102.7 16.12-20.3 33.65-39.6 49.85-59.84 28.47-37.53 56.06-79.06 80.75-119.22 7.99-12.99 25.15-39.41 26.29-53.17.87-10.38 1.78-38.04-1.27-47.68-6.57-20.73-18.7-44.76-28.39-64.35-22.48-46.34-46.97-91.68-73.4-135.88-12.62-20.87-27.57-41.31-39.8-61.78-29.08-48.64-59.72-100.983-95.53-145.175"></path>
  <path fill="rgb(72,78,94)"
    d="M1476.13 1763.27c-5.05 5.47-19.05 18.18-26.68 15.03l-.64-2.33c1.99-8.08 12.49-16.99 19.16-21.74-3.69 7.92-13.6 10.83-12.82 18.52l2.5 2.39c7.62-4.04 11.45-9.5 18.48-11.87"></path>
  <path fill="rgb(193,199,221)"
    d="M712.824 1002.69c7.187 2.24 12.824 5.56 19.82 8.01 27.579 9.67 52.6 24.78 78.322 38.47 48.706 25.93 96.103 54 140.716 86.53 7.834 5.72 21.871 14.45 27.921 21.46 4.294 43.05-2.879 60.81-50.276 47.57-4.776-1.33-9.471-3.89-14.045-5.77-14.721-7.09-29.551-13.72-44.485-20.34-39.861-17.6-79.579-35.52-119.151-53.76-26.333-12.35-58.392-28.71-84.834-39.26-.2-.01-.4-.03-.6-.04-16.12-5.04-24.949-4.13-34.029-18.88 8.598-8.05 18.654-16.59 27.55-24.66 12.517-11.41 38.267-35.04 53.091-39.33"></path>
  <path fill="rgb(113,123,149)"
    d="M632.183 1066.68c8.598-8.05 18.654-16.59 27.55-24.66-7.216 14.74-21.655 13.47-16.348 30.51.429 1.38.877 2.76 1.343 4.12 3.794 1.26 20.248 6.11 21.959 8.04l.125.91c-.2-.01-.4-.03-.6-.04-16.12-5.04-24.949-4.13-34.029-18.88"></path>
  <path fill="rgb(113,123,149)"
    d="M889.005 1714.13c-6.259-6.53-14.146-11.56-12.268-21.38.774-1.16 2.474-3.44 3.937-3.86 10.856-1.86 32.18-13.48 41.788-13.85 17.335-.68 33.894-7.93 49.205-10.2 36.103-5.37 76.873-2.99 113.383-1.39 7.87.34 18.92 4.94 26.93 6.11 14.65 2.13 58.74 12.33 70.21 20.31 2.54 1.75 4.13 4.58 4.3 7.66.39 5.97-4.34 10.18-8.15 14.05-7.47 7.43-15.16 16.3-22.62 23.16-34.13 31.38-79.7 63.32-128.07 62.26-48.526-1.06-95.229-38.8-127.491-71.39-3.751-3.79-7.469-7.62-11.154-11.48"></path>
  <path fill="rgb(193,199,221)"
    d="M889.005 1714.13c-6.259-6.53-14.146-11.56-12.268-21.38.774-1.16 2.474-3.44 3.937-3.86 10.856-1.86 32.18-13.48 41.788-13.85 17.335-.68 33.894-7.93 49.205-10.2 36.103-5.37 76.873-2.99 113.383-1.39 7.87.34 18.92 4.94 26.93 6.11 14.65 2.13 58.74 12.33 70.21 20.31 2.54 1.75 4.13 4.58 4.3 7.66.39 5.97-4.34 10.18-8.15 14.05-28.49-10.53-42.18-12.38-70.46-17.61-52.54-9.72-98.26-10.34-150.909-1.18-11.746 2.05-31.115 4.45-41.179 10.15-10.379 5.88-17.653 7.23-26.787 11.19"></path>
  <path fill="url(#e)"
    d="M687.814 1374.03c-61.312-29.38-109.145-103.71-105.964-172.97 1.451-9.37-2.791-38.41 3.835-45.52 14.66-15.73 49.196 3.68 59.384 10.85 3.291 4.81 3.107 34.78 1.929 40.81.433 4.6.891 9.36 1.569 13.92 6.26 42.11 41.111 84.38 80.731 99.91 10.929 2.88 18.076 9.1 29.676 10.95 9.792.98 26.214 1.81 35.272 3.47-5.564 6.52-24.408 34.11-30.575 37.62-4.396 6.6-7.956 12.21-13.159 18.17-27.318-.98-37.637-6.45-62.698-17.21"></path>
  <path fill="rgb(193,199,221)"
    d="M687.814 1374.03c7.731-4.43 4.787-1.98 13.769-2.79 3.472-3.93 6.449-7.31 8.931-10.12-.069-1.96-.436-2.92.334-4.69 3.29.04 3.654-.27 6.337 1.66 2.068 3.64 1.943 4.85 2.508 9.14 6.773 9.17 23.934-2.83 33.313 2.45 1.314 2.59 1.344 2.91 2.077 5.75 4.785 1.78 4.58-.53 8.588-2.36-4.396 6.6-7.956 12.21-13.159 18.17-27.318-.98-37.637-6.45-62.698-17.21"></path>
  <path fill="rgb(193,199,221)"
    d="M729.298 1321.03c10.929 2.88 18.076 9.1 29.676 10.95 2.111 17.45-11.95 20.26-26.392 20.01-3.032-1.86-6.502-4.58-9.409-6.74-1.652-4.46-4.086-12.47-2.291-16.99 4.103-4.67 4.974-2.05 8.416-7.23"></path>
  <path fill="rgb(38,39,62)"
    d="M645.069 1166.39c3.291 4.81 3.107 34.78 1.929 40.81-4.665-17.51-5.701-22.63-1.929-40.81"></path>
  <path fill="url(#f)"
    d="M714.562 309.811c3.488-.316 5.934-.325 9.083 1.149 10.231 10.494 41.119 89.387 46.944 107.147-.755 2.524-3.063 9.378-4.372 10.906-9.093 10.616-87.501 62.896-95.636 65.045-3.961-.085-14.346.031-16.127-3.551-14.381-28.911-26.342-61.557-39.336-91.369-1.611-3.696-.331-15.782-.036-18.893 19.159-14.689 38.094-27.711 57.841-41.413 14.621-10.146 26.091-19.689 41.639-29.021"></path>
  <path fill="rgb(35,41,54)"
    d="m712.225 345.983 1.081.578c6.665 17.829 24.401 53.003 27.234 68.806-7.299 6.195-58.974 41.818-65.157 44.035-7.499-3.112-9.247-5.788-12.327-13.492-7.022-17.568-14.072-33.8-17.897-52.374 12.253-13.786 50.721-38.952 67.066-47.553"></path>
  <path fill="url(#g)"
    d="M1402.82 1309.12c4.14-12.27 9.58-9.42 15.61-17.16 12.02-15.42 23.89-32.02 29.55-50.93 3.53-11.76 9.27-21.54 9.23-34.26-.16-16.15 1.53-33.19-1.66-49.07-2.89-14.32-12.14-29.87-12.41-44.66-.11-6.01 28.89-17.32 34.13-18.77 3.83 16.75 10.38 34.25 13.27 52.12 13.17 81.52-14.8 161.27-83.07 209.72-.47.34-2.42.43-3.13.49l-.49-8.21c.68-9.76-.56-28.92-1.03-39.27"></path>
  <path fill="url(#h)"
    d="M1091.81 1175.77c-2.12-13.58-.51-50.21.02-65.75.29-3.65 2.41-8.57 5.81-10.38 30.42-16.2 63.45-27.9 93.91-44.29 8.42-4.53 18.67-8.75 26.14-14.4l3.89.77c1.56 3.83.11 10.36 3.62 20.44-32.54 20.59-47.6 36.33-65.7 72.11-4.54 8.99-6.76 20.74-12.68 28.45 2.27 2.25 4.42 4.54 6.95 6.49-1.33 18.72-7.27 21.4-24.12 29.17-4.85 2.24-9.9 5.31-14.42 8.21-7.26-.05-12.32-.31-19.55-.99-3.11-11.13-4-18.16-3.87-29.83"></path>
  <path fill="url(#i)"
    d="M1091.81 1175.77c3.85 10.99 2.16 28.27 20.66 15.92-3.22.14-15.26-.57-17.44-2.5 4.58-2.4 1.52 2.72 7.88-1.37l2.73 1.82.81-.48-3.36-2.85.34-.8c17.71 1.74 23.62-.48 36.65-13.93 2.59-2.68 3.89-5.87 6.74-8.86 2.27 2.25 4.42 4.54 6.95 6.49-1.33 18.72-7.27 21.4-24.12 29.17-4.85 2.24-9.9 5.31-14.42 8.21-7.26-.05-12.32-.31-19.55-.99-3.11-11.13-4-18.16-3.87-29.83"></path>
  <path fill="url(#j)"
    d="M739.276 1239.86c-5.965-8.05-10.999-16.76-15.005-25.95-4.204-9.49-10.936-31.81-7.243-41.36 6.1-5.67 17.104 3.37 23.743 7.19 45.275 17.16 90.957 35.38 134.164 57.39 2.63 1.34 6.577 6.48 8.437 8.88-5.48 4.45-8.85 6.82-14.795 10.65-12.238 6.46-24.36 13.28-38.312 15.32-36.712 9.46-67.127-4.7-90.989-32.12"></path>
  <path fill="rgb(51,133,250)"
    d="M739.276 1239.86c24.091-16.93 58.214-21.15 50.874 19.19-4.449 24.46 31.362 8.11 40.115 12.93-36.712 9.46-67.127-4.7-90.989-32.12"></path>
  <path fill="rgb(15,89,227)"
    d="M740.771 1179.74c45.275 17.16 90.957 35.38 134.164 57.39 2.63 1.34 6.577 6.48 8.437 8.88-5.48 4.45-8.85 6.82-14.795 10.65-.589-4.08-.395-14.37.813-18.18-4.908-1.86-11.265-4.95-16.068-3.23 1.242 2.4 2.612 2.14 5.982 3.42-9.275 2.08-30.228-11.94-39.426-15.57-18.134-7.16-69.486-27.65-79.107-43.36"></path>
  <path fill="rgb(113,123,149)"
    d="m1364.82 1335.38 2.49 1.49c1.12 4.47.99 36.98-.11 41.67-6.71 6.15-39.12 19.83-50.26 15.14-1.45-.6-10.68-13-12.74-15.83-6.04-8.33-11.99-13.11-19.61-19.96 24.59-12.94 64.56-9.78 80.23-22.51"></path>
  <path fill="rgb(51,133,250)"
    d="M561.499 627.269c16.783-.779 23.127 7.013 27.926 22.453-3.105 15.621-4.952 23.917-22.176 24.974-7.536.023-10.333-.256-17.796-1.443-4.25-6.419-7.263-12.951-9.74-20.208 2.951-13.895 7.485-22.472 21.786-25.776"></path>
  <path fill="rgb(113,123,149)"
    d="M1264.94 1016.12c6.54-3.83 13.59-8.91 21-8.67-1.19 14.72.31 24.07.22 38.41-1.42-2.86-1.73-4.15-4.43-5.87-3.16.3-1.71-.18-4.45 1.7-10.79 3.8-42.85 15.55-52.08 20.47-3.51-10.08-2.06-16.61-3.62-20.44l-3.89-.77c7.51-5.8 37.85-19.91 47.25-24.83"></path>
  <path fill="rgb(19,43,108)"
    d="M1264.94 1016.12c6.54-3.83 13.59-8.91 21-8.67-1.19 14.72.31 24.07.22 38.41-1.42-2.86-1.73-4.15-4.43-5.87-3.16.3-1.71-.18-4.45 1.7l-3.73-2.51c-1.4-3.44-1.18-3.42-.51-6.93l.45 3.23c.4-7.43 6.25-13.93 2.78-19.97-4.92-1.95-5.51-.87-11.33.61"></path>
  <path fill="rgb(51,133,250)"
    d="M597.7 545.148c27.056-2.163 33.115 7.2 28.88 32.605-5.094 6.507-8.301 9.211-15.594 13.037-15.14 2.09-21.453-2.628-29.822-15.121-1.322-18.05-2.083-25.785 16.536-30.521"></path>
  <path fill="rgb(72,78,94)"
    d="m1147.52 1241.24 13.3-.16c.79 8.68 1.09 15.06 1.14 23.77-7.73-1.13-20.07-1.06-28.2-1.19-9.17-1.01-12.75-.88-21.78-3.38 12.18-5.77 24.08-16.21 35.54-19.04"></path>
  <path fill="rgb(72,78,94)"
    d="M1501.8 915.478c6.92-12.555 13.85-2.595 18.52 5.731-4.23 2.016-4.51 2.541-5.73 7.406-5.8-3.112-8.83-7.922-12.79-13.137"></path>
  <g id="_llxytpyt" pointer-events="none" style="mix-blend-mode:multiply">
    <rect width="100%" height="100%" fill="url(#_k79g446i)"></rect>
  </g>
  <g pointer-events="none">
    <text x="2040.0" y="2042.0" font-family="Arial,Helvetica,sans-serif" font-size="40.96"
      fill="rgba(0,0,0,0.12)" font-weight="700" text-anchor="end" letter-spacing="0.5">
      vectosolve.com</text>
  </g>
</svg>
